# xmcd
#
# Track frame offsets:
#	150
#	15080
#	28629
#	45348
#	59282
#	71534
#	86320
#	99461
#	110521
#	122902
#	136515
#	149722
#	165934
#	179232
#
# Disc length: 2576 seconds
#
# Revision: 0
# Processed by: cddbd v1.5.2PL0 Copyright (c) Steve Scherf et al.
# Submitted via: EasyCDDAExtractor 15.2.5.1
#
DISCID=b10a0e0e
DTITLE=Fred and Gustavo - Então Valeu
DYEAR=2011
DGENRE=SERTANEJO
TTITLE0=Pra Te Esquecer
TTITLE1=Armadilha
TTITLE2=Lendas e Mistérios - Part. Maria Cecília and Rodolfo
TTITLE3=Então Valeu
TTITLE4=Cuidado Coração
TTITLE5=Inesquecível
TTITLE6=Sai da Minha Vida
TTITLE7=Tudo Liberado
TTITLE8=Primeiro Olhar - Part. Marco Aurélio and Paulo Sérgio
TTITLE9=Sem Você Aqui
TTITLE10=Quebra-Galho
TTITLE11=Absurdos - Part. Munho and Mariano
TTITLE12=Qual o Segredo
TTITLE13=Escondido Ninguém Vê
EXTD=
EXTT0=
EXTT1=
EXTT2=
EXTT3=
EXTT4=
EXTT5=
EXTT6=
EXTT7=
EXTT8=
EXTT9=
EXTT10=
EXTT11=
EXTT12=
EXTT13=
PLAYORDER=
